<svg width="31" height="21" viewBox="0 0 31 21" fill="none" xmlns="http://www.w3.org/2000/svg">
<path d="M5 0H15V4H5V0Z" fill="#F8F4E3"/>
<path d="M17 1H19V3H17V1Z" fill="#F8F4E3"/>
<path d="M17 9H19V11H17V9Z" fill="#F8F4E3"/>
<path fill-rule="evenodd" clip-rule="evenodd" d="M0.5 1.5H5V2.5H1.5V17.5H5V18.5H0.5V1.5Z" fill="#F8F4E3"/>
<path fill-rule="evenodd" clip-rule="evenodd" d="M6 10.5H1V9.5H6V10.5Z" fill="#F8F4E3"/>
<path d="M4.5 16H20.5V20H4.5V16Z" fill="#F8F4E3"/>
<path d="M24.5 19H26.5V21H24.5V19Z" fill="#F8F4E3"/>
<path d="M5 8H15V12H5V8Z" fill="#F8F4E3"/>
<path fill-rule="evenodd" clip-rule="evenodd" d="M28.5 8H22.5V6H30.5V14.1111H26.5V17H24.5V12.1111H28.5V8Z" fill="#F8F4E3"/>
</svg>
