<svg width="27" height="22" viewBox="0 0 27 22" fill="none" xmlns="http://www.w3.org/2000/svg">
<path d="M5.24537e-07 17L0 5H8L8 17L5.24537e-07 17Z" fill="#F8F4E3"/>
<path d="M19.5 7.5H17.5V5.5L19.5 5.5V7.5Z" fill="#F8F4E3"/>
<path d="M19.5 15.5L17.5 15.5V13.5H19.5V15.5Z" fill="#F8F4E3"/>
<path d="M21 6V2.62268e-07L27 0V6L21 6Z" fill="#F8F4E3"/>
<path d="M21 22V16H27V22H21Z" fill="#F8F4E3"/>
<path fill-rule="evenodd" clip-rule="evenodd" d="M14 12H8V10H16V17.5H21V19.5H14L14 12Z" fill="#F8F4E3"/>
<path fill-rule="evenodd" clip-rule="evenodd" d="M16 4L16 11H14V2L21 2V4H16Z" fill="#F8F4E3"/>
</svg>
